# Blender3D v249 OBJ File: skybox.blend
# www.blender3d.org
mtllib skybox1.mtl
v -11.364830 -12.446531 12.162421
v -12.500975 11.525652 11.953439
v -12.608012 11.311361 -12.045360
v -11.471876 -12.660809 -11.836380
v 12.608019 -11.311364 12.045374
v 11.471877 12.660817 11.836372
v 11.364832 12.446520 -12.162434
v 12.500975 -11.525652 -11.953439
vt 0.665518 0.501243
vt 0.666098 0.749039
vt 0.999278 0.749060
vt 0.999331 0.501274
vt 0.334807 0.501271
vt 0.665009 0.249683
vt 0.334808 0.249692
vt 0.665455 0.501218
vt 0.334486 0.749200
vt 0.334761 0.501291
vt 0.000592 0.749200
vt 0.000546 0.501165
vt 0.665275 0.749167
vt 0.334575 0.749224
vt 0.665828 0.999871
vt 0.334727 0.999499
vt 0.665520 0.000562
vt 0.334377 0.000412
vt 0.665012 0.249674
vt 0.334810 0.249672
vt 0.666028 0.749053
vt 0.665471 0.501237
vt 0.334513 0.749218
vt 0.334798 0.501289
vn 0.635823 0.700400 0.324259
vn 0.546770 0.598804 -0.585162
vn -0.367473 0.644154 -0.670797
vn -0.678701 0.307352 0.666982
vn 0.367473 -0.644154 0.670797
vn -0.546770 -0.598804 0.585162
vn 0.678701 -0.307352 -0.666982
vn -0.635823 -0.700400 -0.324259
usemtl skybox_texture.jpg_skybox_texture_2.jpg
s 1
f 4/1/1 1/2/2 5/3/3
f 5/3/3 8/4/4 4/1/1
f 3/5/5 8/6/4 7/7/6
f 3/5/5 4/8/1 8/6/4
f 2/9/7 3/10/5 6/11/8
f 6/11/8 3/10/5 7/12/6
f 1/13/2 2/14/7 5/15/3
f 5/15/3 2/14/7 6/16/8
f 5/17/3 6/18/8 8/19/4
f 8/19/4 6/18/8 7/20/6
f 1/21/2 4/22/1 2/23/7
f 2/23/7 4/22/1 3/24/5
